<mxfile host="app.diagrams.net" modified="2024-10-25T09:25:42.480Z" agent="Mozilla/5.0 (Macintosh; Intel Mac OS X 10_15_7) AppleWebKit/537.36 (KHTML, like Gecko) Chrome/128.0.0.0 Safari/537.36" etag="SA2lAQspFjJfHrE30Ji7" version="22.1.16" type="github">
  <diagram name="第 1 页" id="AINmG9N4S4bAgwLZylh2">
    <mxGraphModel dx="2165" dy="761" grid="1" gridSize="10" guides="1" tooltips="1" connect="1" arrows="1" fold="1" page="1" pageScale="1" pageWidth="827" pageHeight="1169" math="0" shadow="0">
      <root>
        <mxCell id="0" />
        <mxCell id="1" parent="0" />
        <mxCell id="vM9sMfo9za9YmmYqojep-2" value="" style="ellipse;whiteSpace=wrap;html=1;aspect=fixed;" vertex="1" parent="1">
          <mxGeometry x="396" y="345" width="370" height="370" as="geometry" />
        </mxCell>
        <mxCell id="vM9sMfo9za9YmmYqojep-3" value="" style="shape=mxgraph.cisco.people.man_woman;html=1;pointerEvents=1;dashed=0;fillColor=#036897;strokeColor=#ffffff;strokeWidth=2;verticalLabelPosition=bottom;verticalAlign=top;align=center;outlineConnect=0;" vertex="1" parent="1">
          <mxGeometry x="470" y="590" width="40" height="75" as="geometry" />
        </mxCell>
        <mxCell id="vM9sMfo9za9YmmYqojep-4" value="" style="shape=mxgraph.signs.travel.bank;html=1;pointerEvents=1;fillColor=#000000;strokeColor=none;verticalLabelPosition=bottom;verticalAlign=top;align=center;" vertex="1" parent="1">
          <mxGeometry x="558.5" y="460" width="45" height="40" as="geometry" />
        </mxCell>
        <mxCell id="vM9sMfo9za9YmmYqojep-5" value="" style="shape=image;html=1;verticalAlign=top;verticalLabelPosition=bottom;labelBackgroundColor=#ffffff;imageAspect=0;aspect=fixed;image=https://cdn1.iconfinder.com/data/icons/2-building-line-filled/614/Factory-128.png" vertex="1" parent="1">
          <mxGeometry x="640" y="585" width="73" height="73" as="geometry" />
        </mxCell>
        <mxCell id="vM9sMfo9za9YmmYqojep-6" value="" style="endArrow=classic;html=1;rounded=0;" edge="1" parent="1">
          <mxGeometry width="50" height="50" relative="1" as="geometry">
            <mxPoint x="520" y="640" as="sourcePoint" />
            <mxPoint x="630" y="640" as="targetPoint" />
          </mxGeometry>
        </mxCell>
        <mxCell id="vM9sMfo9za9YmmYqojep-7" value="劳动力、生产要素" style="text;html=1;align=center;verticalAlign=middle;resizable=0;points=[];autosize=1;strokeColor=none;fillColor=none;" vertex="1" parent="1">
          <mxGeometry x="510" y="635" width="120" height="30" as="geometry" />
        </mxCell>
        <mxCell id="vM9sMfo9za9YmmYqojep-8" value="" style="endArrow=classic;html=1;rounded=0;" edge="1" parent="1">
          <mxGeometry width="50" height="50" relative="1" as="geometry">
            <mxPoint x="490" y="580" as="sourcePoint" />
            <mxPoint x="550" y="500" as="targetPoint" />
          </mxGeometry>
        </mxCell>
        <mxCell id="vM9sMfo9za9YmmYqojep-9" value="" style="endArrow=classic;html=1;rounded=0;entryX=0.46;entryY=-0.039;entryDx=0;entryDy=0;entryPerimeter=0;" edge="1" parent="1" target="vM9sMfo9za9YmmYqojep-5">
          <mxGeometry width="50" height="50" relative="1" as="geometry">
            <mxPoint x="610" y="500" as="sourcePoint" />
            <mxPoint x="560" y="510" as="targetPoint" />
          </mxGeometry>
        </mxCell>
        <mxCell id="vM9sMfo9za9YmmYqojep-10" value="信贷" style="text;html=1;align=center;verticalAlign=middle;resizable=0;points=[];autosize=1;strokeColor=none;fillColor=none;" vertex="1" parent="1">
          <mxGeometry x="630" y="518" width="50" height="30" as="geometry" />
        </mxCell>
        <mxCell id="vM9sMfo9za9YmmYqojep-11" value="储蓄" style="text;html=1;align=center;verticalAlign=middle;resizable=0;points=[];autosize=1;strokeColor=none;fillColor=none;" vertex="1" parent="1">
          <mxGeometry x="485" y="518" width="50" height="30" as="geometry" />
        </mxCell>
        <mxCell id="vM9sMfo9za9YmmYqojep-12" value="" style="endArrow=classic;html=1;rounded=0;" edge="1" parent="1">
          <mxGeometry width="50" height="50" relative="1" as="geometry">
            <mxPoint x="630" y="620" as="sourcePoint" />
            <mxPoint x="520" y="620" as="targetPoint" />
          </mxGeometry>
        </mxCell>
        <mxCell id="vM9sMfo9za9YmmYqojep-13" value="工资、产品" style="text;html=1;align=center;verticalAlign=middle;resizable=0;points=[];autosize=1;strokeColor=none;fillColor=none;" vertex="1" parent="1">
          <mxGeometry x="535" y="598" width="80" height="30" as="geometry" />
        </mxCell>
        <mxCell id="vM9sMfo9za9YmmYqojep-15" value="" style="shape=mxgraph.signs.travel.bank;html=1;pointerEvents=1;fillColor=#000000;strokeColor=none;verticalLabelPosition=bottom;verticalAlign=top;align=center;" vertex="1" parent="1">
          <mxGeometry x="510" y="385" width="45" height="40" as="geometry" />
        </mxCell>
        <mxCell id="vM9sMfo9za9YmmYqojep-17" value="" style="verticalLabelPosition=bottom;aspect=fixed;html=1;shape=mxgraph.salesforce.government;" vertex="1" parent="1">
          <mxGeometry x="615" y="375" width="51.6" height="60" as="geometry" />
        </mxCell>
        <mxCell id="vM9sMfo9za9YmmYqojep-18" value="" style="ellipse;whiteSpace=wrap;html=1;aspect=fixed;" vertex="1" parent="1">
          <mxGeometry x="-180" y="370" width="370" height="370" as="geometry" />
        </mxCell>
        <mxCell id="vM9sMfo9za9YmmYqojep-19" value="" style="shape=mxgraph.cisco.people.man_woman;html=1;pointerEvents=1;dashed=0;fillColor=#036897;strokeColor=#ffffff;strokeWidth=2;verticalLabelPosition=bottom;verticalAlign=top;align=center;outlineConnect=0;" vertex="1" parent="1">
          <mxGeometry x="-106" y="615" width="40" height="75" as="geometry" />
        </mxCell>
        <mxCell id="vM9sMfo9za9YmmYqojep-20" value="" style="shape=mxgraph.signs.travel.bank;html=1;pointerEvents=1;fillColor=#000000;strokeColor=none;verticalLabelPosition=bottom;verticalAlign=top;align=center;" vertex="1" parent="1">
          <mxGeometry x="-17.5" y="485" width="45" height="40" as="geometry" />
        </mxCell>
        <mxCell id="vM9sMfo9za9YmmYqojep-21" value="" style="shape=image;html=1;verticalAlign=top;verticalLabelPosition=bottom;labelBackgroundColor=#ffffff;imageAspect=0;aspect=fixed;image=https://cdn1.iconfinder.com/data/icons/2-building-line-filled/614/Factory-128.png" vertex="1" parent="1">
          <mxGeometry x="64" y="610" width="73" height="73" as="geometry" />
        </mxCell>
        <mxCell id="vM9sMfo9za9YmmYqojep-22" value="" style="endArrow=classic;html=1;rounded=0;" edge="1" parent="1">
          <mxGeometry width="50" height="50" relative="1" as="geometry">
            <mxPoint x="-56" y="665" as="sourcePoint" />
            <mxPoint x="54" y="665" as="targetPoint" />
          </mxGeometry>
        </mxCell>
        <mxCell id="vM9sMfo9za9YmmYqojep-23" value="劳动力、生产要素" style="text;html=1;align=center;verticalAlign=middle;resizable=0;points=[];autosize=1;strokeColor=none;fillColor=none;" vertex="1" parent="1">
          <mxGeometry x="-66" y="660" width="120" height="30" as="geometry" />
        </mxCell>
        <mxCell id="vM9sMfo9za9YmmYqojep-24" value="" style="endArrow=classic;html=1;rounded=0;" edge="1" parent="1">
          <mxGeometry width="50" height="50" relative="1" as="geometry">
            <mxPoint x="-86" y="605" as="sourcePoint" />
            <mxPoint x="-26" y="525" as="targetPoint" />
          </mxGeometry>
        </mxCell>
        <mxCell id="vM9sMfo9za9YmmYqojep-25" value="" style="endArrow=classic;html=1;rounded=0;entryX=0.46;entryY=-0.039;entryDx=0;entryDy=0;entryPerimeter=0;" edge="1" target="vM9sMfo9za9YmmYqojep-21" parent="1">
          <mxGeometry width="50" height="50" relative="1" as="geometry">
            <mxPoint x="34" y="525" as="sourcePoint" />
            <mxPoint x="-16" y="535" as="targetPoint" />
          </mxGeometry>
        </mxCell>
        <mxCell id="vM9sMfo9za9YmmYqojep-26" value="信贷" style="text;html=1;align=center;verticalAlign=middle;resizable=0;points=[];autosize=1;strokeColor=none;fillColor=none;" vertex="1" parent="1">
          <mxGeometry x="54" y="543" width="50" height="30" as="geometry" />
        </mxCell>
        <mxCell id="vM9sMfo9za9YmmYqojep-27" value="储蓄" style="text;html=1;align=center;verticalAlign=middle;resizable=0;points=[];autosize=1;strokeColor=none;fillColor=none;" vertex="1" parent="1">
          <mxGeometry x="-91" y="543" width="50" height="30" as="geometry" />
        </mxCell>
        <mxCell id="vM9sMfo9za9YmmYqojep-28" value="" style="endArrow=classic;html=1;rounded=0;" edge="1" parent="1">
          <mxGeometry width="50" height="50" relative="1" as="geometry">
            <mxPoint x="54" y="645" as="sourcePoint" />
            <mxPoint x="-56" y="645" as="targetPoint" />
          </mxGeometry>
        </mxCell>
        <mxCell id="vM9sMfo9za9YmmYqojep-29" value="工资、产品" style="text;html=1;align=center;verticalAlign=middle;resizable=0;points=[];autosize=1;strokeColor=none;fillColor=none;" vertex="1" parent="1">
          <mxGeometry x="-41" y="623" width="80" height="30" as="geometry" />
        </mxCell>
        <mxCell id="vM9sMfo9za9YmmYqojep-30" value="" style="shape=mxgraph.signs.travel.bank;html=1;pointerEvents=1;fillColor=#000000;strokeColor=none;verticalLabelPosition=bottom;verticalAlign=top;align=center;" vertex="1" parent="1">
          <mxGeometry x="-66" y="410" width="45" height="40" as="geometry" />
        </mxCell>
        <mxCell id="vM9sMfo9za9YmmYqojep-31" value="" style="verticalLabelPosition=bottom;aspect=fixed;html=1;shape=mxgraph.salesforce.government;" vertex="1" parent="1">
          <mxGeometry x="39" y="400" width="51.6" height="60" as="geometry" />
        </mxCell>
        <mxCell id="vM9sMfo9za9YmmYqojep-32" value="" style="image;html=1;image=img/lib/clip_art/finance/Coins_128x128.png" vertex="1" parent="1">
          <mxGeometry x="551" y="425" width="60" height="30" as="geometry" />
        </mxCell>
      </root>
    </mxGraphModel>
  </diagram>
</mxfile>
